# xmcd
#
# Track frame offsets:
#	150
#	21122
#	33422
#	45770
#	56590
#	67617
#	78395
#	88582
#	103222
#	117977
#	129465
#	140365
#	152510
#	163657
#	179377
#	192932
#	203152
#	212950
#	225205
#	236255
#	247537
#	259447
#	272717
#	282860
#	292142
#
# Disc length: 4118
#
# Revision: 4
# Processed by: cddbd v1.5.1PL0 Copyright (c) Steve Scherf et al.
# Submitted via: CDex 1.51
# Normalized: r3:DSETVAR1
#
DISCID=54101419
DTITLE=Various Artist - SUPER EURO Christmas 2003 non-stop megamix
DYEAR=2003
DGENRE=EUROBEAT
TTITLE0=AT THE TIME OF CHRISTMAS CAROL - MICHAEL FORTUNATI
TTITLE1=LAST CHRISTMAS - 7th HEAVEN
TTITLE2=ALL I WANT FOR CHRISTMAS IS YOU - CHERRY
TTITLE3=THERE MUST BE AN ANGEL - LESLIE PARRISH
TTITLE4=JINGLE BELL - NATALIE WHITE
TTITLE5=SANTA CLAUS IS COMING TO TOWN - ROSE feat. ATRIUM
TTITLE6=OH HAPPY DAY - JUNGLE BILL
TTITLE7=MERRY X'MAS - DAVE and DOMINO
TTITLE8=HOLY NIGHT - DAVE and DOMINO
TTITLE9=TELL ME MORE - NORMA SHEFFIELD
TTITLE10=MERRY CHRISTMAS BABY - DAVE RODGERS
TTITLE11=BEFORE TOMORROW COMES AGAIN - LOUISE
TTITLE12=FANTASY - VIRGINELLE
TTITLE13=EVERYTIME YOU WANT - TRISHA
TTITLE14=MY ONLY X'MAS STAR - SCP ALL STARS
TTITLE15=HOLY X'MAS NIGHT - ACE feat. BRUBELL GIRLS AND CHILD CHOIR
TTITLE16=WHITE CHRISTMAS - SOPHIE
TTITLE17=MY LOVE IS YOUR LOVE - MICHELLE ROSE
TTITLE18=RUDOLPH HE RED NOSED REINDEER - KARINA
TTITLE19=CHRISTMAS IN TOKYO - TIME ALL STARS
TTITLE20=READY TO FALL IN LOVE - MELODY
TTITLE21=PAINTED LOVE - KAREN
TTITLE22=HAPPY XMAS - MERRY XMAS - TIME ALL STARS
TTITLE23=SILENT NIGHT - DELTA QUEENS
TTITLE24=HAPPY XMAS (WAR IS OVER) - SUZY LAZY
EXTD=YEAR: 2003
EXTT0=
EXTT1=
EXTT2=
EXTT3=
EXTT4=
EXTT5=
EXTT6=
EXTT7=
EXTT8=
EXTT9=
EXTT10=
EXTT11=
EXTT12=
EXTT13=
EXTT14=
EXTT15=
EXTT16=
EXTT17=
EXTT18=
EXTT19=
EXTT20=
EXTT21=
EXTT22=
EXTT23=
EXTT24=
PLAYORDER=
